<svg id="Layer_1" data-name="Layer 1" xmlns="http://www.w3.org/2000/svg" viewBox="0 0 633.81 255.68"><defs><style>.cls-1{fill:#f4811e;}.cls-2{fill-rule:evenodd;}</style></defs><title>Sixt car hire Logo Vector</title><path id="path31402" class="cls-1" d="M393.91,416.43C470.09,422,513,400.48,527.68,372.16h77.78c-23.39,67.63-96.32,110-211.55,104.21V416.43" transform="translate(-183.1 -372.16)"/><path id="path31404" class="cls-2" d="M661.63,476.41l-27.9,39.19,64.45,94.3V476.41Zm-192.89,7.95V605.12l60.84-90.36L501,477.38c23.84-6.58,45.49-16.75,64.36-31.53l18.38,23.28,34.88-52.7H816.9v59.82H772.32v146H618.66l-39.32-58.74L538.46,622.3H393.92V582.14c-10.38,28.4-43.18,45.7-108.21,45.7-96.46,0-101.14-34.1-102.61-73.15h76.28c.24,11.66,2.21,20.11,6.89,25.64,4.92,5.54,11.57,8.46,21.41,8.46,15.5,0,32.23-4.37,32.23-21.28a15.68,15.68,0,0,0-3.2-9.61c-10.08-13.4-95-23.31-118.85-48.09-9.6-9.9-12.55-24.76-12.55-36.71,0-46.05,35.68-66.74,106.8-66.74,75.54,0,93.42,26.45,94.41,69.87H313.06c-.49-11.66-4-20.77-9.11-25-4.95-4.08-9.24-6-16.77-5.83-15.74.31-24.11,7-24.11,17.78,0,3.2,1,7.28,3.2,9.62,11.57,13.11,93.75,22.44,117.38,47.49a47.86,47.86,0,0,1,10.27,16.34V488.17c24.41.91,49.81.1,74.82-3.81" transform="translate(-183.1 -372.16)"/></svg>